Coordinates
version=1
nRows=13
nColumns=33
inDegrees=yes

Units are S.I. units (second, meters, Newtons, ...)
Angles are in degrees.

endheader
time	ground_thorax_rot_x	ground_thorax_rot_y	ground_thorax_rot_z	ground_thorax_tx	ground_thorax_ty	ground_thorax_tz	clav_prot_r	clav_elev_r	scapula_abduction_r	scapula_elevation_r	scapula_upward_rot_r	scapula_winging_r	shoulder_elv_r	plane_of_elev_r	axial_rot_r	elbow_flexion_r	pro_sup_r	wrist_flex_r	wrist_dev_r	clav_prot_l	clav_elev_l	scapula_abduction_l	scapula_elevation_l	scapula_upward_rot_l	scapula_winging_l	shoulder_elv_l	plane_of_elev_l	axial_rot_l	elbow_flexion_l	pro_sup_l	wrist_flex_l	wrist_dev_l	
11.5300	-31.994232	-25.995357	33.915329	-117.002607	852.440336	-45.998614	26.927952	-45.000000	39.818631	-45.000000	-45.000000	971.280727	2958.043081	21.050695	-144.820662	2158.623941	-196.984109	17.519883	13.261722	-1.032084	33.252620	-31.902706	-45.000000	-45.000000	3689.270284	-3521.778459	27.119885	48.205954	1788.808671	37.507395	13.543024	-21.630311	
11.5400	-31.927685	-26.090360	34.041590	-116.644851	852.318056	-45.885981	26.996331	-45.000000	39.886786	-45.000000	-45.000000	971.271136	2958.042851	21.069557	-144.794684	2158.614857	-196.950032	17.534340	13.242312	-1.076614	33.250255	-31.865842	-45.000000	-45.000000	3689.261226	-3521.805890	27.119456	48.197883	1788.851429	37.556604	13.534775	-21.659697	
11.5500	-31.840542	-26.213099	34.223076	-116.265867	852.197532	-45.776656	27.079565	-45.000000	39.935416	-45.000000	-45.000000	971.281233	2958.096108	21.073213	-144.747748	2158.658784	-196.916145	17.637006	13.377042	-1.113691	33.150393	-31.818498	-45.000000	-45.000000	3689.215924	-3521.796212	27.059394	48.191664	1788.898557	37.597634	13.584495	-21.731024	
11.5600	-31.783923	-26.315110	34.369730	-115.838983	852.080417	-45.676264	27.127927	-45.000000	39.975833	-45.000000	-45.000000	971.297640	2958.099615	21.071620	-144.762713	2158.668487	-196.895334	17.686625	13.434331	-1.134328	33.115026	-31.807678	-45.000000	-45.000000	3689.198946	-3521.786289	27.035805	48.199444	1788.912466	37.629577	13.607326	-21.757579	
11.5700	-31.736847	-26.412945	34.508945	-115.361188	851.965884	-45.583741	27.162046	-45.000000	40.010196	-45.000000	-45.000000	971.320429	2958.087843	21.069781	-144.809870	2158.667622	-196.882448	17.706106	13.478649	-1.146390	33.103568	-31.810465	-45.000000	-45.000000	3689.194572	-3521.770431	27.031621	48.221431	1788.908202	37.648249	13.624266	-21.761507	
11.5800	-31.692964	-26.511447	34.646823	-114.825691	851.852937	-45.499022	27.183913	-45.000000	40.038116	-45.000000	-45.000000	971.354943	2958.068067	21.065120	-144.886810	2158.666908	-196.882215	17.731152	13.529349	-1.147404	33.091648	-31.820732	-45.000000	-45.000000	3689.186686	-3521.742471	27.027975	48.253641	1788.894272	37.650933	13.649656	-21.755511	
11.5900	-31.644747	-26.612164	34.782006	-114.231533	851.739574	-45.420645	27.201949	-45.000000	40.069937	-45.000000	-45.000000	971.389032	2958.041557	21.070366	-144.984821	2158.653516	-196.889494	17.716182	13.561169	-1.148713	33.103483	-31.828843	-45.000000	-45.000000	3689.190460	-3521.719957	27.047278	48.303477	1788.878634	37.637125	13.666855	-21.731056	
11.6000	-31.582060	-26.722216	34.934202	-113.580531	851.623456	-45.347003	27.222116	-45.000000	40.102623	-45.000000	-45.000000	971.432284	2958.024296	21.073017	-145.092842	2158.655182	-196.910662	17.730973	13.617534	-1.146981	33.090992	-31.832324	-45.000000	-45.000000	3689.177574	-3521.689227	27.050272	48.360273	1788.869200	37.608416	13.703243	-21.712593	
11.6100	-31.508338	-26.835835	35.085958	-112.874123	851.502319	-45.277207	27.243229	-45.000000	40.146577	-45.000000	-45.000000	971.467573	2957.998368	21.089515	-145.214962	2158.639027	-196.939394	17.692269	13.640354	-1.155148	33.107394	-31.824939	-45.000000	-45.000000	3689.177296	-3521.671669	27.081842	48.435604	1788.865125	37.568288	13.725955	-21.675956	
11.6200	-31.422136	-26.955071	35.249886	-112.114057	851.374307	-45.210971	27.265603	-45.000000	40.188865	-45.000000	-45.000000	971.513008	2957.978420	21.101709	-145.346015	2158.635221	-196.985243	17.689979	13.686488	-1.158490	33.100317	-31.811112	-45.000000	-45.000000	3689.157108	-3521.647791	27.098082	48.516584	1788.870122	37.519637	13.765584	-21.645906	
11.6300	-31.321726	-27.085371	35.428235	-111.301970	851.237826	-45.148382	27.289104	-45.000000	40.240890	-45.000000	-45.000000	971.551868	2957.952105	21.121357	-145.490884	2158.618626	-197.040630	17.636054	13.711908	-1.173637	33.112806	-31.793729	-45.000000	-45.000000	3689.151566	-3521.632708	27.129390	48.617637	1788.871963	37.467337	13.796586	-21.599205	
11.6400	-31.213453	-27.218174	35.619270	-110.439620	851.091502	-45.089738	27.312988	-45.000000	40.285728	-45.000000	-45.000000	971.601952	2957.928514	21.135932	-145.644637	2158.615942	-197.116491	17.615124	13.757637	-1.184043	33.103126	-31.783595	-45.000000	-45.000000	3689.133631	-3521.612789	27.142495	48.725402	1788.873909	37.412195	13.844394	-21.557527	
11.6500	-31.096158	-27.358807	35.819902	-109.528339	850.934046	-45.035327	27.336195	-45.000000	40.338055	-45.000000	-45.000000	971.649021	2957.897656	21.156876	-145.810082	2158.601440	-197.205137	17.554625	13.793174	-1.204209	33.109001	-31.768326	-45.000000	-45.000000	3689.123610	-3521.596582	27.166953	48.848098	1788.871811	37.356631	13.885577	-21.499484	
